<svg width="540" height="540" xmlns="http://www.w3.org/2000/svg">
<rect width="540" height="540" fill="#FFFFFF"/>
<!-- Chess Board -->
<rect x="30" y="450" width="60" height="60" fill="#F0D9B5"/>
<text x="60" y="488" text-anchor="middle" font-family="serif" font-size="50" fill="#333333">♜</text>
<rect x="90" y="450" width="60" height="60" fill="#B58863"/>
<text x="120" y="488" text-anchor="middle" font-family="serif" font-size="50" fill="#333333">♞</text>
<rect x="150" y="450" width="60" height="60" fill="#F0D9B5"/>
<text x="180" y="488" text-anchor="middle" font-family="serif" font-size="50" fill="#333333">♝</text>
<rect x="210" y="450" width="60" height="60" fill="#B58863"/>
<text x="240" y="488" text-anchor="middle" font-family="serif" font-size="50" fill="#333333">♛</text>
<rect x="270" y="450" width="60" height="60" fill="#F0D9B5"/>
<rect x="330" y="450" width="60" height="60" fill="#B58863"/>
<text x="360" y="488" text-anchor="middle" font-family="serif" font-size="50" fill="#333333">♜</text>
<rect x="390" y="450" width="60" height="60" fill="#F0D9B5"/>
<text x="420" y="488" text-anchor="middle" font-family="serif" font-size="50" fill="#333333">♚</text>
<rect x="450" y="450" width="60" height="60" fill="#B58863"/>
<rect x="30" y="390" width="60" height="60" fill="#B58863"/>
<text x="60" y="428" text-anchor="middle" font-family="serif" font-size="50" fill="#333333">♟</text>
<rect x="90" y="390" width="60" height="60" fill="#F0D9B5"/>
<text x="120" y="428" text-anchor="middle" font-family="serif" font-size="50" fill="#333333">♟</text>
<rect x="150" y="390" width="60" height="60" fill="#B58863"/>
<text x="180" y="428" text-anchor="middle" font-family="serif" font-size="50" fill="#333333">♟</text>
<rect x="210" y="390" width="60" height="60" fill="#F0D9B5"/>
<rect x="270" y="390" width="60" height="60" fill="#B58863"/>
<rect x="330" y="390" width="60" height="60" fill="#F0D9B5"/>
<text x="360" y="428" text-anchor="middle" font-family="serif" font-size="50" fill="#333333">♟</text>
<rect x="390" y="390" width="60" height="60" fill="#B58863"/>
<text x="420" y="428" text-anchor="middle" font-family="serif" font-size="50" fill="#333333">♟</text>
<rect x="450" y="390" width="60" height="60" fill="#F0D9B5"/>
<text x="480" y="428" text-anchor="middle" font-family="serif" font-size="50" fill="#333333">♟</text>
<rect x="30" y="330" width="60" height="60" fill="#F0D9B5"/>
<rect x="90" y="330" width="60" height="60" fill="#B58863"/>
<rect x="150" y="330" width="60" height="60" fill="#F0D9B5"/>
<rect x="210" y="330" width="60" height="60" fill="#B58863"/>
<text x="240" y="368" text-anchor="middle" font-family="serif" font-size="50" fill="#333333">♟</text>
<rect x="270" y="330" width="60" height="60" fill="#F0D9B5"/>
<rect x="330" y="330" width="60" height="60" fill="#B58863"/>
<text x="360" y="368" text-anchor="middle" font-family="serif" font-size="50" fill="#333333">♙</text>
<rect x="390" y="330" width="60" height="60" fill="#F0D9B5"/>
<rect x="450" y="330" width="60" height="60" fill="#B58863"/>
<rect x="30" y="270" width="60" height="60" fill="#B58863"/>
<rect x="90" y="270" width="60" height="60" fill="#F0D9B5"/>
<rect x="150" y="270" width="60" height="60" fill="#B58863"/>
<rect x="210" y="270" width="60" height="60" fill="#F0D9B5"/>
<rect x="270" y="270" width="60" height="60" fill="#B58863"/>
<rect x="330" y="270" width="60" height="60" fill="#F0D9B5"/>
<rect x="390" y="270" width="60" height="60" fill="#B58863"/>
<rect x="450" y="270" width="60" height="60" fill="#F0D9B5"/>
<rect x="30" y="210" width="60" height="60" fill="#F0D9B5"/>
<rect x="90" y="210" width="60" height="60" fill="#B58863"/>
<text x="120" y="248" text-anchor="middle" font-family="serif" font-size="50" fill="#333333">♝</text>
<rect x="150" y="210" width="60" height="60" fill="#F0D9B5"/>
<rect x="210" y="210" width="60" height="60" fill="#B58863"/>
<rect x="270" y="210" width="60" height="60" fill="#F0D9B5"/>
<text x="300" y="248" text-anchor="middle" font-family="serif" font-size="50" fill="#333333">♙</text>
<rect x="330" y="210" width="60" height="60" fill="#B58863"/>
<rect x="390" y="210" width="60" height="60" fill="#F0D9B5"/>
<rect x="450" y="210" width="60" height="60" fill="#B58863"/>
<rect x="30" y="150" width="60" height="60" fill="#B58863"/>
<rect x="90" y="150" width="60" height="60" fill="#F0D9B5"/>
<rect x="150" y="150" width="60" height="60" fill="#B58863"/>
<rect x="210" y="150" width="60" height="60" fill="#F0D9B5"/>
<rect x="270" y="150" width="60" height="60" fill="#B58863"/>
<rect x="330" y="150" width="60" height="60" fill="#F0D9B5"/>
<rect x="390" y="150" width="60" height="60" fill="#B58863"/>
<rect x="450" y="150" width="60" height="60" fill="#F0D9B5"/>
<rect x="30" y="90" width="60" height="60" fill="#F0D9B5"/>
<text x="60" y="128" text-anchor="middle" font-family="serif" font-size="50" fill="#333333">♙</text>
<rect x="90" y="90" width="60" height="60" fill="#B58863"/>
<text x="120" y="128" text-anchor="middle" font-family="serif" font-size="50" fill="#333333">♙</text>
<rect x="150" y="90" width="60" height="60" fill="#F0D9B5"/>
<text x="180" y="128" text-anchor="middle" font-family="serif" font-size="50" fill="#333333">♙</text>
<rect x="210" y="90" width="60" height="60" fill="#B58863"/>
<rect x="270" y="90" width="60" height="60" fill="#F0D9B5"/>
<text x="300" y="128" text-anchor="middle" font-family="serif" font-size="50" fill="#333333">♔</text>
<rect x="330" y="90" width="60" height="60" fill="#B58863"/>
<text x="360" y="128" text-anchor="middle" font-family="serif" font-size="50" fill="#333333">♙</text>
<rect x="390" y="90" width="60" height="60" fill="#F0D9B5"/>
<text x="420" y="128" text-anchor="middle" font-family="serif" font-size="50" fill="#333333">♙</text>
<rect x="450" y="90" width="60" height="60" fill="#B58863"/>
<text x="480" y="128" text-anchor="middle" font-family="serif" font-size="50" fill="#333333">♙</text>
<rect x="30" y="30" width="60" height="60" fill="#B58863"/>
<text x="60" y="68" text-anchor="middle" font-family="serif" font-size="50" fill="#333333">♖</text>
<rect x="90" y="30" width="60" height="60" fill="#F0D9B5"/>
<text x="120" y="68" text-anchor="middle" font-family="serif" font-size="50" fill="#333333">♘</text>
<rect x="150" y="30" width="60" height="60" fill="#B58863"/>
<text x="180" y="68" text-anchor="middle" font-family="serif" font-size="50" fill="#333333">♗</text>
<rect x="210" y="30" width="60" height="60" fill="#F0D9B5"/>
<text x="240" y="68" text-anchor="middle" font-family="serif" font-size="50" fill="#333333">♕</text>
<rect x="270" y="30" width="60" height="60" fill="#B58863"/>
<rect x="330" y="30" width="60" height="60" fill="#F0D9B5"/>
<text x="360" y="68" text-anchor="middle" font-family="serif" font-size="50" fill="#333333">♗</text>
<rect x="390" y="30" width="60" height="60" fill="#B58863"/>
<text x="420" y="68" text-anchor="middle" font-family="serif" font-size="50" fill="#333333">♘</text>
<rect x="450" y="30" width="60" height="60" fill="#F0D9B5"/>
<text x="480" y="68" text-anchor="middle" font-family="serif" font-size="50" fill="#333333">♖</text>
<text x="60" y="530" text-anchor="middle" font-family="monospace" font-size="14" fill="#333333">a</text>
<text x="120" y="530" text-anchor="middle" font-family="monospace" font-size="14" fill="#333333">b</text>
<text x="180" y="530" text-anchor="middle" font-family="monospace" font-size="14" fill="#333333">c</text>
<text x="240" y="530" text-anchor="middle" font-family="monospace" font-size="14" fill="#333333">d</text>
<text x="300" y="530" text-anchor="middle" font-family="monospace" font-size="14" fill="#333333">e</text>
<text x="360" y="530" text-anchor="middle" font-family="monospace" font-size="14" fill="#333333">f</text>
<text x="420" y="530" text-anchor="middle" font-family="monospace" font-size="14" fill="#333333">g</text>
<text x="480" y="530" text-anchor="middle" font-family="monospace" font-size="14" fill="#333333">h</text>
<text x="15" y="485" text-anchor="middle" font-family="monospace" font-size="14" fill="#333333">1</text>
<text x="15" y="425" text-anchor="middle" font-family="monospace" font-size="14" fill="#333333">2</text>
<text x="15" y="365" text-anchor="middle" font-family="monospace" font-size="14" fill="#333333">3</text>
<text x="15" y="305" text-anchor="middle" font-family="monospace" font-size="14" fill="#333333">4</text>
<text x="15" y="245" text-anchor="middle" font-family="monospace" font-size="14" fill="#333333">5</text>
<text x="15" y="185" text-anchor="middle" font-family="monospace" font-size="14" fill="#333333">6</text>
<text x="15" y="125" text-anchor="middle" font-family="monospace" font-size="14" fill="#333333">7</text>
<text x="15" y="65" text-anchor="middle" font-family="monospace" font-size="14" fill="#333333">8</text>
</svg>